<svg id="Layer_1" data-name="Layer 1" xmlns="http://www.w3.org/2000/svg" viewBox="0 0 15648 2148.86"><defs><style>.cls-1{fill:#30303c;}.cls-2{fill:#5f92c3;}</style></defs><title>Artboard 2vec</title><path class="cls-1" d="M9043.41,1072.44c0-469.78,354.07-798.4,826.17-798.4s823.85,328.62,823.85,798.4-351.75,798.4-823.85,798.4S9043.41,1542.22,9043.41,1072.44Zm1245,0c0-252.25-164.31-446.64-418.87-446.64-256.87,0-421.19,194.39-421.19,446.64,0,249.93,164.31,446.64,421.19,446.64C10124.14,1519.08,10288.44,1322.37,10288.44,1072.44Z"/><path class="cls-1" d="M5225.85,647.79V300.66H4094.21V1623.88c0,121.69,98.65,220.34,220.34,220.34h911.3V1497.1h-733.6v-261.5h717.4V888.46h-717.4V647.79Z"/><path class="cls-1" d="M7192.23,300.66a173.72,173.72,0,0,0-173.72,173.72V647.79h432.76V1645.2c0,109.91,89.1,199,199,199h199V647.79h430.44V300.66Z"/><path class="cls-1" d="M464.84,300.66V1645.2c0,109.91,89.1,199,199,199h199V300.66Z"/><path class="cls-1" d="M6439.23,300.66V1150L5814.4,300.66H5404.78V1645.2c0,109.91,89.1,199,199,199h199V950.95l652.6,893.28h384.16V300.66Z"/><path class="cls-1" d="M2829.25,300.66a173.72,173.72,0,0,0-173.72,173.72V647.79h432.76V1645.2c0,109.91,89.1,199,199,199h199V647.79h430.44V300.66Z"/><path class="cls-1" d="M8462.56,300.66V1645.2c0,109.91,89.1,199,199,199h199V300.66Z"/><path class="cls-2" d="M13730.35,647.79V300.66H12598.7V1623.88c0,121.69,98.65,220.34,220.34,220.34h911.3V1497.1h-733.6v-261.5h717.4V888.46h-717.4V647.79Z"/><path class="cls-2" d="M14083.2,300.66a173.72,173.72,0,0,0-173.72,173.72V647.79h432.76V1645.2c0,109.91,89.1,199,199,199h199V647.79h430.44V300.66Z"/><polygon class="cls-1" points="12187.2 300.66 11958.53 300.66 11958.53 1121.84 12187.21 1446.82 12187.2 300.66"/><path id="Left" class="cls-1" d="M12187.21,1844.19,11101,300.66h-228.68V1676.25c8.42,94.14,87.5,167.94,183.84,167.94l229.51,0c-101.92,0-184.53-82.67-184.53-184.59L11101,698l228.68,325h0l577,820Z"/><path class="cls-2" d="M11329.72,1023,11101,698l.14,961.6c0,101.93,82.61,184.56,184.53,184.59h44v-5.59Z"/><polygon class="cls-2" points="12187.22 300.66 12187.21 1446.82 11380.66 300.66 11101.06 300.66 12187.21 1844.19 12415.9 1844.19 12415.9 300.95 12187.22 300.66"/><path class="cls-1" d="M2076.25,300.66V1150L1451.42,300.66H1041.8V1645.2c0,109.91,89.1,199,199,199h199V950.95l652.6,893.28H2476.6V300.66Z"/></svg>